<?xml version="1.0" encoding="utf-8"?>
<!-- Generator: Adobe Illustrator 19.0.0, SVG Export Plug-In . SVG Version: 6.00 Build 0)  -->
<svg version="1.1" id="Layer_1" xmlns="http://www.w3.org/2000/svg" xmlns:xlink="http://www.w3.org/1999/xlink" x="0px" y="0px"
	 viewBox="-358 227.6 44.1 44.1" style="enable-background:new -358 227.6 44.1 44.1;" xml:space="preserve">
<style type="text/css">
	.st0{fill:#FFC952;}
	.st1{fill:#004071;}
</style>
<g id="XMLID_2695_">
	<path id="XMLID_2696_" class="st0" d="M-324.9,271.6H-347c-6,0-10.9-4.9-10.9-10.9v-22.1c0-6,4.9-10.9,10.9-10.9h22.1
		c6,0,10.9,4.9,10.9,10.9v22.1C-313.9,266.7-318.8,271.6-324.9,271.6z"/>
</g>
<g id="XMLID_2651_">
	<g id="XMLID_2658_">
		<path id="XMLID_2659_" class="st1" d="M-333,260h-5.8c-5.3,0-7.5-2.2-7.5-7.5v-5.8c0-5.3,2.2-7.5,7.5-7.5h5.8
			c5.3,0,7.5,2.2,7.5,7.5v5.8C-325.5,257.8-327.8,260-333,260z M-338.9,240.6c-4.5,0-6.1,1.6-6.1,6.1v5.8c0,4.5,1.6,6.1,6.1,6.1h5.8
			c4.5,0,6.1-1.6,6.1-6.1v-5.8c0-4.5-1.6-6.1-6.1-6.1H-338.9z"/>
	</g>
	<g id="XMLID_2654_">
		<path id="XMLID_2655_" class="st1" d="M-338.9,248.4c-1.5,0-2.7-1.2-2.7-2.7c0-1.5,1.2-2.7,2.7-2.7s2.7,1.2,2.7,2.7
			C-336.2,247.2-337.4,248.4-338.9,248.4z M-338.9,244.5c-0.7,0-1.2,0.5-1.2,1.2s0.5,1.2,1.2,1.2c0.7,0,1.2-0.5,1.2-1.2
			S-338.2,244.5-338.9,244.5z"/>
	</g>
	<g id="XMLID_2652_">
		<path id="XMLID_2653_" class="st1" d="M-345,257.1c-0.2,0-0.5-0.1-0.6-0.3c-0.2-0.3-0.1-0.8,0.2-1l4.8-3.2c1-0.7,2.5-0.6,3.4,0.2
			l0.3,0.3c0.5,0.4,1.3,0.4,1.8,0l4-3.5c1-0.9,2.7-0.9,3.7,0l1.6,1.4c0.3,0.3,0.3,0.7,0.1,1c-0.3,0.3-0.7,0.3-1,0.1l-1.6-1.4
			c-0.5-0.4-1.3-0.4-1.8,0l-4,3.5c-1,0.9-2.7,0.9-3.7,0l-0.3-0.3c-0.4-0.4-1.2-0.4-1.7-0.1l-4.8,3.2
			C-344.7,257-344.9,257.1-345,257.1z"/>
	</g>
</g>
</svg>
