<?xml version="1.0" encoding="utf-8"?>
<!-- Generator: Adobe Illustrator 19.0.0, SVG Export Plug-In . SVG Version: 6.00 Build 0)  -->
<svg version="1.1" id="Layer_1" xmlns="http://www.w3.org/2000/svg" xmlns:xlink="http://www.w3.org/1999/xlink" x="0px" y="0px"
	 viewBox="-358 227.6 44.1 44.1" style="enable-background:new -358 227.6 44.1 44.1;" xml:space="preserve">
<style type="text/css">
	.st0{fill:#004071;}
</style>
<g id="XMLID_2651_">
	<g id="XMLID_2658_">
		<path id="XMLID_2659_" class="st0" d="M-329.8,271.6h-12.3c-11.1,0-15.9-4.8-15.9-15.9v-12.3c0-11.1,4.8-15.9,15.9-15.9h12.3
			c11.1,0,15.9,4.8,15.9,15.9v12.3C-313.9,266.9-318.7,271.6-329.8,271.6z M-342.1,230.7c-9.5,0-12.8,3.4-12.8,12.8v12.3
			c0,9.5,3.4,12.8,12.8,12.8h12.3c9.5,0,12.8-3.4,12.8-12.8v-12.3c0-9.5-3.4-12.8-12.8-12.8H-342.1z"/>
	</g>
	<g id="XMLID_2654_">
		<path id="XMLID_2655_" class="st0" d="M-342.1,247.1c-3.1,0-5.6-2.5-5.6-5.6c0-3.1,2.5-5.6,5.6-5.6s5.6,2.5,5.6,5.6
			C-336.5,244.5-339,247.1-342.1,247.1z M-342.1,238.9c-1.4,0-2.6,1.1-2.6,2.6c0,1.4,1.1,2.6,2.6,2.6s2.6-1.1,2.6-2.6
			C-339.6,240-340.7,238.9-342.1,238.9z"/>
	</g>
	<g id="XMLID_2652_">
		<path id="XMLID_2653_" class="st0" d="M-355.1,265.4c-0.5,0-1-0.2-1.3-0.7c-0.5-0.7-0.3-1.7,0.4-2.1l10.1-6.8
			c2.2-1.5,5.3-1.3,7.3,0.4l0.7,0.6c1,0.9,2.7,0.9,3.8,0l8.5-7.3c2.2-1.9,5.6-1.9,7.8,0l3.3,2.9c0.6,0.6,0.7,1.5,0.2,2.2
			c-0.6,0.6-1.5,0.7-2.2,0.2l-3.3-2.9c-1-0.9-2.8-0.9-3.8,0l-8.5,7.3c-2.2,1.9-5.6,1.9-7.8,0l-0.7-0.6c-0.9-0.8-2.5-0.9-3.5-0.2
			l-10.1,6.8C-354.5,265.3-354.8,265.4-355.1,265.4z"/>
	</g>
</g>
</svg>
