<?xml version="1.0" encoding="utf-8"?>
<!-- Generator: Adobe Illustrator 19.0.0, SVG Export Plug-In . SVG Version: 6.00 Build 0)  -->
<svg version="1.1" id="Layer_1" xmlns="http://www.w3.org/2000/svg" xmlns:xlink="http://www.w3.org/1999/xlink" x="0px" y="0px"
	 viewBox="-358 227.6 29.7 41.7" style="enable-background:new -358 227.6 29.7 41.7;" xml:space="preserve">
<style type="text/css">
	.st0{fill:#2162FF;}
</style>
<g id="XMLID_1018_">
	<g>
		<g id="XMLID_69_">
			<path id="XMLID_73_" class="st0" d="M-343.2,246.4c-0.2,0-0.4,0-0.6,0c-4.6-0.2-8.3-3.9-8.3-8.6c0-4.8,3.8-8.6,8.6-8.6
				c4.8,0,8.6,3.9,8.6,8.6C-334.9,242.5-338.5,246.2-343.2,246.4z"/>
			<path id="XMLID_70_" class="st0" d="M-343.2,248c-0.1,0-0.1,0-0.2,0c-0.1,0-0.2,0-0.3,0c-5.7-0.2-10-4.7-10-10.2
				c0-5.6,4.6-10.2,10.2-10.2c5.6,0,10.2,4.6,10.2,10.2C-333.3,243.3-337.6,247.8-343.2,248C-343.1,248-343.2,248-343.2,248z
				 M-343.5,230.7c-3.9,0-7.1,3.2-7.1,7.1c0,3.8,3,6.9,6.8,7c0.1,0,0.4,0,0.6,0c3.8-0.2,6.7-3.2,6.7-7
				C-336.4,233.9-339.6,230.7-343.5,230.7z"/>
		</g>
		<path id="XMLID_68_" class="st0" d="M-352.9,253.6c-4.7,3.1-4.7,8.3,0,11.4c5.3,3.6,14.1,3.6,19.5,0c4.7-3.1,4.7-8.3,0-11.4
			C-338.8,250-347.5,250-352.9,253.6z"/>
		<path id="XMLID_65_" class="st0" d="M-343.2,269.2c-3.8,0-7.7-1-10.6-2.9c-2.7-1.8-4.2-4.3-4.2-7c0-2.7,1.5-5.2,4.2-7c0,0,0,0,0,0
			c5.9-3.9,15.4-3.9,21.2,0c2.7,1.8,4.2,4.3,4.2,7c0,2.7-1.5,5.2-4.2,7C-335.5,268.3-339.3,269.2-343.2,269.2z M-352,254.9
			c-1.8,1.2-2.8,2.8-2.8,4.4c0,1.6,1,3.2,2.8,4.4c4.8,3.2,12.9,3.2,17.7,0c1.8-1.2,2.8-2.8,2.8-4.4c0-1.6-1-3.2-2.8-4.4
			C-339.1,251.7-347.2,251.7-352,254.9z"/>
	</g>
</g>
</svg>
