<?xml version="1.0" encoding="utf-8"?>
<!-- Generator: Adobe Illustrator 19.0.0, SVG Export Plug-In . SVG Version: 6.00 Build 0)  -->
<svg version="1.1" id="Layer_1" xmlns="http://www.w3.org/2000/svg" xmlns:xlink="http://www.w3.org/1999/xlink" x="0px" y="0px"
	 viewBox="-358 227.6 41.5 41.7" style="enable-background:new -358 227.6 41.5 41.7;" xml:space="preserve">
<style type="text/css">
	.st0{fill:#FFFFFF;}
	.st1{fill:#2162FF;}
</style>
<circle id="XMLID_1068_" class="st0" cx="-337.3" cy="248.3" r="20.7"/>
<g id="XMLID_1018_">
	<g>
		<g id="XMLID_69_">
			<path id="XMLID_73_" class="st1" d="M-337.1,247.4c-0.1,0-0.3,0-0.4,0c-2.8-0.1-5-2.4-5-5.2c0-2.9,2.3-5.2,5.2-5.2
				c2.9,0,5.2,2.3,5.2,5.2C-332,245-334.3,247.3-337.1,247.4z"/>
			<path id="XMLID_70_" class="st1" d="M-337.1,248.3C-337.1,248.3-337.1,248.3-337.1,248.3c-0.2,0-0.2,0-0.3,0
				c-3.5-0.1-6.1-2.8-6.1-6.2c0-3.4,2.8-6.2,6.2-6.2s6.2,2.8,6.2,6.2C-331.1,245.5-333.7,248.2-337.1,248.3
				C-337,248.3-337,248.3-337.1,248.3z M-337.2,237.9c-2.4,0-4.3,1.9-4.3,4.3c0,2.3,1.8,4.2,4.1,4.3c0.1,0,0.2,0,0.4,0
				c2.3-0.1,4.1-2,4.1-4.3C-333,239.8-334.9,237.9-337.2,237.9z"/>
		</g>
		<path id="XMLID_68_" class="st1" d="M-343,251.7c-2.9,1.9-2.9,5,0,6.9c3.2,2.2,8.6,2.2,11.8,0c2.9-1.9,2.9-5,0-6.9
			C-334.4,249.6-339.7,249.6-343,251.7z"/>
		<path id="XMLID_65_" class="st1" d="M-337.1,261.2c-2.3,0-4.7-0.6-6.4-1.8c-1.7-1.1-2.6-2.6-2.6-4.2c0-1.6,0.9-3.2,2.6-4.3
			c0,0,0,0,0,0c3.6-2.4,9.3-2.4,12.9,0c1.7,1.1,2.6,2.6,2.6,4.2c0,1.6-0.9,3.2-2.6,4.3C-332.4,260.6-334.7,261.2-337.1,261.2z
			 M-342.4,252.5c-1.1,0.7-1.7,1.7-1.7,2.7c0,1,0.6,1.9,1.7,2.7c2.9,1.9,7.8,1.9,10.7,0c1.1-0.7,1.7-1.7,1.7-2.7
			c0-1-0.6-1.9-1.7-2.7C-334.6,250.6-339.5,250.6-342.4,252.5z"/>
	</g>
</g>
</svg>
