<?xml version="1.0" encoding="utf-8"?>
<!-- Generator: Adobe Illustrator 19.0.0, SVG Export Plug-In . SVG Version: 6.00 Build 0)  -->
<svg version="1.1" id="Layer_1" xmlns="http://www.w3.org/2000/svg" xmlns:xlink="http://www.w3.org/1999/xlink" x="0px" y="0px"
	 viewBox="-358 227.6 51.8 51.9" style="enable-background:new -358 227.6 51.8 51.9;" xml:space="preserve">
<style type="text/css">
	.st0{fill:#2162FF;}
</style>
<path id="XMLID_20527_" class="st0" d="M-332.1,279.4c-14.3,0-25.9-11.6-25.9-25.9s11.6-25.9,25.9-25.9c14.3,0,25.9,11.6,25.9,25.9
	S-317.8,279.4-332.1,279.4z M-332.1,272.9c10.7,0,19.4-8.7,19.4-19.4c0-10.7-8.7-19.4-19.4-19.4c-10.7,0-19.4,8.7-19.4,19.4
	C-351.5,264.2-342.8,272.9-332.1,272.9z M-334,250.3h14.9v6.5H-334l4.2,4.2l-4.6,4.6l-12-12l12-12l4.6,4.6L-334,250.3z"/>
</svg>
