<?xml version="1.0" encoding="utf-8"?>
<!-- Generator: Adobe Illustrator 19.0.0, SVG Export Plug-In . SVG Version: 6.00 Build 0)  -->
<svg version="1.1" id="Layer_1" xmlns="http://www.w3.org/2000/svg" xmlns:xlink="http://www.w3.org/1999/xlink" x="0px" y="0px"
	 viewBox="-358 227.6 44.1 13.7" style="enable-background:new -358 227.6 44.1 13.7;" xml:space="preserve">
<style type="text/css">
	.st0{fill:#414042;}
</style>
<g>
	<path class="st0" d="M-357.5,227.6v11.1h-0.4v-11.1H-357.5z M-357.4,240.6h0.2v0.3l0.1,0.1h0.5l0.1-0.1v-0.7h-0.7v-0.2h0.7v-0.5
		l-0.1-0.1h-0.5c0,0,0,0-0.1,0c0,0,0,0,0,0c0,0,0,0.1,0,0.2c0,0.1,0,0.2,0,0.2h-0.2v-0.5l0.1-0.1h0.9l0.1,0.1v0.7c0,0,0,0.1,0,0.1v0
		v0c0,0,0,0.1,0,0.1v0.9l-0.1,0.1h-0.9l-0.1-0.1V240.6z M-357,227.6v11.1h-0.4v-11.1H-357z M-356.4,227.6v11.1h-0.1L-356.4,227.6
		L-356.4,227.6z M-356.1,227.6v11.1h-0.1L-356.1,227.6L-356.1,227.6z M-355.9,227.6v11.1h-0.1L-355.9,227.6L-355.9,227.6z"/>
	<path class="st0" d="M-354.9,227.6h0.4v11.1h-0.4V227.6z M-354.3,227.6L-354.3,227.6l0.1,11.1h-0.1V227.6z M-353.8,239.5h-0.4v-0.2
		h0.7v2h-0.2V239.5z M-353.8,227.6L-353.8,227.6l0.1,11.1h-0.1V227.6z M-353.5,227.6L-353.5,227.6l0.1,11.1h-0.1V227.6z
		 M-353.3,227.6h0.4v11.1h-0.4V227.6z"/>
	<path class="st0" d="M-351.8,227.6v11.1h-0.1L-351.8,227.6L-351.8,227.6z M-351.6,227.6v11.1h-0.1L-351.6,227.6L-351.6,227.6z
		 M-350.7,239.5h-0.5c0,0,0,0,0,0c0,0,0,0,0,0.1c0,0,0,0.1,0,0.1c0,0.1,0,0.1,0,0.2h-0.2v-0.5l0.1-0.1h1l0.1,0.1v1.9h-0.2v-1.7
		L-350.7,239.5z M-351,227.6v11.1h-0.1L-351,227.6L-351,227.6z M-350.4,227.6v11.1h-0.4v-11.1H-350.4z M-349.9,227.6v11.1h-0.4
		v-11.1H-349.9z"/>
	<path class="st0" d="M-348.8,227.6v11.1h-0.1L-348.8,227.6L-348.8,227.6z M-348.3,227.6v11.1h-0.4v-11.1H-348.3z M-347.5,240v-0.4
		l-0.1-0.1h-0.5c0,0,0,0,0,0c0,0,0,0,0,0v0.4h-0.2v-0.5l0.1-0.1h1l0.1,0.1v0.9l-0.1,0.2h-0.7l-0.1,0.1v0.6h0.9v0.2h-1.2v-1
		c0,0,0,0,0,0c0,0,0,0,0-0.1c0,0,0-0.1,0.1-0.1h0.7L-347.5,240z M-347.7,227.6v11.1h-0.1L-347.7,227.6L-347.7,227.6z M-347.4,227.6
		v11.1h-0.1L-347.4,227.6L-347.4,227.6z M-346.9,227.6v11.1h-0.4v-11.1H-346.9z"/>
	<path class="st0" d="M-345.5,227.6v11.1h-0.4v-11.1H-345.5z M-345.5,240.7h0.2c0,0,0,0.1,0,0.2c0,0.1,0,0.1,0,0.1c0,0,0,0,0,0.1
		c0,0,0,0,0,0h0.6l0.1-0.1v-0.5l-0.1-0.1h-0.9v-1.1h1.2v0.2h-0.9v0.6h0.8l0.2,0.2v0.9l-0.2,0.2h-0.9l-0.2-0.2V240.7z M-345.3,227.6
		v11.1h-0.1L-345.3,227.6L-345.3,227.6z M-344.4,227.6v11.1h-0.4v-11.1H-344.4z M-344.2,227.6v11.1h-0.1L-344.2,227.6L-344.2,227.6z
		 M-343.9,227.6v11.1h-0.1L-343.9,227.6L-343.9,227.6z"/>
	<path class="st0" d="M-342.9,227.6L-342.9,227.6l0.1,11.1h-0.1V227.6z M-342.6,227.6L-342.6,227.6l0.1,11.1h-0.1V227.6z
		 M-341.6,240.4h-1v-1.1h0.2v0.8h0.7v-0.8h0.2v2.1h-0.2V240.4z M-342.1,227.6h0.4v11.1h-0.4V227.6z M-341.5,227.6L-341.5,227.6
		l0.1,11.1h-0.1V227.6z M-341.3,227.6h0.4v11.1h-0.4V227.6z"/>
	<path class="st0" d="M-339.8,227.6v11.1h-0.1L-339.8,227.6L-339.8,227.6z M-339.3,227.6v11.1h-0.4v-11.1H-339.3z M-339.6,239.4
		l0.2-0.2h0.9l0.1,0.1v0.5h-0.2c0,0,0-0.1,0-0.2c0-0.1,0-0.1,0-0.1c0,0,0,0,0-0.1c0,0,0,0,0,0h-0.5l-0.1,0.1v0.6l0.1,0h0.7l0.2,0.2
		v0.8l-0.2,0.2h-0.9l-0.2-0.2V239.4z M-339.2,241.1h0.6l0.1-0.1v-0.5l-0.1-0.1h-0.6l-0.1,0.1L-339.2,241.1L-339.2,241.1z
		 M-338.5,227.6v11.1h-0.4v-11.1H-338.5z M-338.2,227.6v11.1h-0.1L-338.2,227.6L-338.2,227.6z M-337.9,227.6v11.1h-0.1L-337.9,227.6
		L-337.9,227.6z"/>
	<path class="st0" d="M-336.5,227.6v11.1h-0.4v-11.1H-336.5z M-336.6,240.5c0-0.1,0.1-0.2,0.1-0.3c0.1-0.1,0.1-0.1,0.1-0.1
		c-0.1-0.1-0.1-0.1-0.2-0.2c0-0.1,0-0.1,0-0.2c0,0,0-0.1,0-0.1c0-0.1,0-0.1,0-0.2c0-0.1,0.1-0.1,0.1-0.1s0.1-0.1,0.1-0.1h0.7
		c0,0,0,0,0.1,0.1c0.1,0,0.1,0.1,0.1,0.1c0,0,0,0.1,0,0.1c0,0.1,0,0.1,0,0.2c0,0.1,0,0.1,0,0.2c0,0.1-0.1,0.1-0.2,0.2
		c0.1,0.1,0.2,0.2,0.2,0.2c0,0.1,0,0.1,0,0.3c0,0.1,0,0.2,0,0.2c0,0,0,0.1,0,0.1c0,0,0,0.1-0.1,0.1c0,0-0.1,0.1-0.2,0.1
		c0,0,0,0-0.1,0c0,0-0.1,0-0.1,0h-0.6c-0.2,0-0.3-0.1-0.3-0.2c-0.1-0.1-0.1-0.2-0.1-0.3V240.5z M-336.3,227.6v11.1h-0.1
		L-336.3,227.6L-336.3,227.6z M-336.4,240.9c0,0.1,0.1,0.1,0.2,0.2c0.1,0,0.2,0,0.3,0c0,0,0.1,0,0.1,0c0,0,0.1,0,0.1,0
		c0,0,0.1,0,0.1-0.1c0,0,0-0.1,0-0.1v-0.4c0,0,0-0.1-0.1-0.1c0,0-0.1,0-0.1-0.1c0,0-0.1,0-0.1,0c0,0-0.1,0-0.1,0c-0.1,0-0.2,0-0.2,0
		s-0.1,0.1-0.2,0.1V240.9z M-336.2,240C-336.2,240-336.2,240-336.2,240c0.1,0.1,0.1,0.1,0.1,0.1c0,0,0,0,0.1,0c0,0,0.1,0,0.1,0
		c0,0,0,0,0.1,0c0,0,0.1,0,0.1,0c0,0,0.1,0,0.1-0.1c0.1,0,0.1-0.1,0.1-0.1l0-0.1c0-0.1,0-0.2-0.1-0.2c-0.1,0-0.2,0-0.3,0
		c-0.1,0-0.2,0-0.3,0c-0.1,0-0.1,0.1-0.1,0.2v0.1L-336.2,240z M-335.7,227.6v11.1h-0.1L-335.7,227.6L-335.7,227.6z M-335.2,227.6
		v11.1h-0.4v-11.1H-335.2z M-334.9,227.6v11.1h-0.1L-334.9,227.6L-334.9,227.6z"/>
	<path class="st0" d="M-333.8,227.6v11.1h-0.1L-333.8,227.6L-333.8,227.6z M-333.6,227.6v11.1h-0.1L-333.6,227.6L-333.6,227.6z
		 M-332.7,239.5h-0.5c0,0,0,0,0,0c0,0,0,0,0,0.1c0,0,0,0.1,0,0.1c0,0.1,0,0.1,0,0.2h-0.2v-0.5l0.1-0.1h1l0.1,0.1v1.9h-0.2v-1.7
		L-332.7,239.5z M-333,227.6v11.1h-0.1L-333,227.6L-333,227.6z M-332.5,227.6v11.1h-0.4v-11.1H-332.5z M-331.9,227.6v11.1h-0.4
		v-11.1H-331.9z"/>
	<path class="st0" d="M-330.5,227.6v11.1h-0.4v-11.1H-330.5z M-330.5,240.7h0.2c0,0,0,0.1,0,0.2c0,0.1,0,0.1,0,0.1c0,0,0,0,0,0.1
		c0,0,0,0,0,0h0.6l0.1-0.1v-0.5l-0.1-0.1h-0.9v-1.1h1.2v0.2h-0.9v0.6h0.8l0.2,0.2v0.9l-0.2,0.2h-0.9l-0.2-0.2V240.7z M-330.3,227.6
		v11.1h-0.1L-330.3,227.6L-330.3,227.6z M-329.5,227.6v11.1h-0.4v-11.1H-329.5z M-329.2,227.6v11.1h-0.1L-329.2,227.6L-329.2,227.6z
		 M-328.9,227.6v11.1h-0.1L-328.9,227.6L-328.9,227.6z"/>
	<path class="st0" d="M-327.5,227.6v11.1h-0.4v-11.1H-327.5z M-327.7,240.5c0-0.1,0.1-0.2,0.1-0.3c0.1-0.1,0.1-0.1,0.1-0.1
		c-0.1-0.1-0.1-0.1-0.2-0.2c0-0.1,0-0.1,0-0.2c0,0,0-0.1,0-0.1c0-0.1,0-0.1,0-0.2c0-0.1,0.1-0.1,0.1-0.1s0.1-0.1,0.1-0.1h0.7
		c0,0,0,0,0.1,0.1c0.1,0,0.1,0.1,0.1,0.1s0,0.1,0,0.1c0,0.1,0,0.1,0,0.2c0,0.1,0,0.1,0,0.2s-0.1,0.1-0.2,0.2
		c0.1,0.1,0.2,0.2,0.2,0.2c0,0.1,0,0.1,0,0.3c0,0.1,0,0.2,0,0.2c0,0,0,0.1,0,0.1c0,0,0,0.1-0.1,0.1c0,0-0.1,0.1-0.2,0.1
		c0,0,0,0-0.1,0c0,0-0.1,0-0.1,0h-0.6c-0.2,0-0.3-0.1-0.3-0.2c-0.1-0.1-0.1-0.2-0.1-0.3V240.5z M-327.3,227.6v11.1h-0.1
		L-327.3,227.6L-327.3,227.6z M-327.4,240.9c0,0.1,0.1,0.1,0.2,0.2c0.1,0,0.2,0,0.3,0c0,0,0.1,0,0.1,0c0,0,0.1,0,0.1,0
		c0,0,0.1,0,0.1-0.1c0,0,0-0.1,0-0.1v-0.4c0,0,0-0.1-0.1-0.1c0,0-0.1,0-0.1-0.1c0,0-0.1,0-0.1,0c0,0-0.1,0-0.1,0c-0.1,0-0.2,0-0.2,0
		c-0.1,0-0.1,0.1-0.2,0.1V240.9z M-327.2,240C-327.2,240-327.2,240-327.2,240c0.1,0.1,0.1,0.1,0.1,0.1c0,0,0,0,0.1,0
		c0,0,0.1,0,0.1,0c0,0,0,0,0.1,0c0,0,0.1,0,0.1,0c0,0,0.1,0,0.1-0.1c0.1,0,0.1-0.1,0.1-0.1l0-0.1c0-0.1,0-0.2-0.1-0.2
		c-0.1,0-0.2,0-0.3,0c-0.1,0-0.2,0-0.3,0c-0.1,0-0.1,0.1-0.1,0.2v0.1L-327.2,240z M-326.7,227.6v11.1h-0.1L-326.7,227.6
		L-326.7,227.6z M-326.2,227.6v11.1h-0.4v-11.1H-326.2z M-325.9,227.6v11.1h-0.1L-325.9,227.6L-325.9,227.6z"/>
	<path class="st0" d="M-324.6,227.6v11.1h-0.4v-11.1H-324.6z M-324.5,240.7h0.2c0,0,0,0.1,0,0.2c0,0.1,0,0.1,0,0.1c0,0,0,0,0,0.1
		c0,0,0,0,0,0h0.6l0.1-0.1v-0.5l-0.1-0.1h-0.9v-1.1h1.2v0.2h-0.9v0.6h0.8l0.2,0.2v0.9l-0.2,0.2h-0.9l-0.2-0.2V240.7z M-324.3,227.6
		v11.1h-0.1L-324.3,227.6L-324.3,227.6z M-323.5,227.6v11.1h-0.4v-11.1H-323.5z M-323.2,227.6v11.1h-0.1L-323.2,227.6L-323.2,227.6z
		 M-322.9,227.6v11.1h-0.1L-322.9,227.6L-322.9,227.6z"/>
	<path class="st0" d="M-321.9,227.6L-321.9,227.6l0.1,11.1h-0.1V227.6z M-321.7,227.6L-321.7,227.6l0.1,11.1h-0.1V227.6z
		 M-320.6,240.4h-1v-1.1h0.2v0.8h0.7v-0.8h0.2v2.1h-0.2V240.4z M-321.1,227.6h0.4v11.1h-0.4V227.6z M-320.6,227.6L-320.6,227.6
		l0.1,11.1h-0.1V227.6z M-320.3,227.6h0.4v11.1h-0.4V227.6z"/>
	<path class="st0" d="M-318.9,227.6v11.1h-0.1L-318.9,227.6L-318.9,227.6z M-318.3,227.6v11.1h-0.4v-11.1H-318.3z M-318.6,239.4
		l0.2-0.2h0.9l0.1,0.1v0.5h-0.2c0,0,0-0.1,0-0.2c0-0.1,0-0.1,0-0.1c0,0,0,0,0-0.1c0,0,0,0,0,0h-0.5l-0.1,0.1v0.6l0.1,0h0.7l0.2,0.2
		v0.8l-0.2,0.2h-0.9l-0.2-0.2V239.4z M-318.3,241.1h0.6l0.1-0.1v-0.5l-0.1-0.1h-0.6l-0.1,0.1L-318.3,241.1L-318.3,241.1z
		 M-317.5,227.6v11.1h-0.4v-11.1H-317.5z M-317.2,227.6v11.1h-0.1L-317.2,227.6L-317.2,227.6z M-316.9,227.6v11.1h-0.1L-316.9,227.6
		L-316.9,227.6z"/>
	<path class="st0" d="M-315.9,227.6v11.1h-0.1L-315.9,227.6L-315.9,227.6z M-315.6,227.6v11.1h-0.1L-315.6,227.6L-315.6,227.6z
		 M-314.7,239.5h-0.5c0,0,0,0,0,0c0,0,0,0,0,0.1c0,0,0,0.1,0,0.1c0,0.1,0,0.1,0,0.2h-0.2v-0.5l0.1-0.1h1l0.1,0.1v1.9h-0.2v-1.7
		L-314.7,239.5z M-315.1,227.6v11.1h-0.1L-315.1,227.6L-315.1,227.6z M-314.5,227.6v11.1h-0.4v-11.1H-314.5z M-313.9,227.6v11.1
		h-0.4v-11.1H-313.9z"/>
</g>
</svg>
