<?xml version="1.0" encoding="utf-8"?>
<!-- Generator: Adobe Illustrator 19.0.0, SVG Export Plug-In . SVG Version: 6.00 Build 0)  -->
<svg version="1.1" id="Layer_1" xmlns="http://www.w3.org/2000/svg" xmlns:xlink="http://www.w3.org/1999/xlink" x="0px" y="0px"
	 viewBox="-358 227.6 41.7 41.7" style="enable-background:new -358 227.6 41.7 41.7;" xml:space="preserve">
<style type="text/css">
	.st0{fill:#FFFFFF;}
	.st1{fill:#2162FF;}
</style>
<circle id="XMLID_1066_" class="st0" cx="-337.2" cy="248.4" r="20.8"/>
<path id="XMLID_1022_" class="st1" d="M-325.4,244.1c0,2.2-0.9,2.4-2.1,2.4l-1.6,8.6c-0.4,2.2-1,3.8-4.6,3.8h-7.1
	c-3.4,0-4.3-1.7-4.7-4l-1.4-8.5c-1.2,0-2.1-0.2-2.1-2.4c0-2.1,1.1-2.3,2.6-2.4c0.1-0.2,0.1-0.3,0.2-0.5l4.3-4.3c0.6-0.6,1.5-0.6,2,0
	c0.6,0.6,0.6,1.5,0,2l-2.7,2.7h10.9l-2.7-2.7c-0.6-0.6-0.6-1.5,0-2c0.6-0.6,1.5-0.6,2,0l4.3,4.3c0.1,0.1,0.1,0.3,0.2,0.5
	C-326.5,241.7-325.4,241.9-325.4,244.1z M-338.4,253.6v-4.2c0-0.8-0.6-1.4-1.4-1.4s-1.4,0.6-1.4,1.4v4.2c0,0.8,0.6,1.4,1.4,1.4
	S-338.4,254.4-338.4,253.6z M-332.9,253.6v-4.2c0-0.8-0.6-1.4-1.4-1.4s-1.4,0.6-1.4,1.4v4.2c0,0.8,0.6,1.4,1.4,1.4
	S-332.9,254.4-332.9,253.6z"/>
</svg>
