<?xml version="1.0" encoding="utf-8"?>
<!-- Generator: Adobe Illustrator 19.0.0, SVG Export Plug-In . SVG Version: 6.00 Build 0)  -->
<svg version="1.1" id="Layer_1" xmlns="http://www.w3.org/2000/svg" xmlns:xlink="http://www.w3.org/1999/xlink" x="0px" y="0px"
	 viewBox="-358 227.6 44.1 41.7" style="enable-background:new -358 227.6 44.1 41.7;" xml:space="preserve">
<style type="text/css">
	.st0{fill:#2162FF;}
</style>
<path id="XMLID_1022_" class="st0" d="M-313.9,241.7c0,4.2-1.7,4.4-3.9,4.4l-3.1,16c-0.8,4.1-1.8,7.1-8.7,7.1h-13.3
	c-6.3,0-8-3.1-8.7-7.4l-2.6-15.8c-2.2,0-3.8-0.3-3.8-4.4c0-4,2.1-4.4,4.8-4.4c0.1-0.3,0.1-0.6,0.4-0.9l8-8c1-1,2.7-1.1,3.8,0
	c1.1,1,1.1,2.8,0,3.8l-5.1,5.1h20.4l-5.1-5.1c-1-1.1-1-2.8,0-3.8c1.1-1.1,2.8-1,3.8,0l8,8c0.2,0.2,0.2,0.6,0.4,0.9
	C-316.1,237.3-313.9,237.6-313.9,241.7z M-338.2,259.4v-7.8c0-1.5-1.2-2.7-2.7-2.7s-2.7,1.2-2.7,2.7v7.8c0,1.5,1.2,2.7,2.7,2.7
	S-338.2,260.9-338.2,259.4z M-328.1,259.4v-7.8c0-1.5-1.2-2.7-2.7-2.7s-2.7,1.2-2.7,2.7v7.8c0,1.5,1.2,2.7,2.7,2.7
	S-328.1,260.9-328.1,259.4z"/>
</svg>
