<?xml version="1.0" encoding="utf-8"?>
<!-- Generator: Adobe Illustrator 19.0.0, SVG Export Plug-In . SVG Version: 6.00 Build 0)  -->
<svg version="1.1" id="Layer_1" xmlns="http://www.w3.org/2000/svg" xmlns:xlink="http://www.w3.org/1999/xlink" x="0px" y="0px"
	 viewBox="-358 227.6 41.6 41.7" style="enable-background:new -358 227.6 41.6 41.7;" xml:space="preserve">
<style type="text/css">
	.st0{fill:#2162FF;}
</style>
<g id="XMLID_6150_">
	<g>
		<g id="XMLID_46_">
			<path id="XMLID_47_" class="st0" d="M-337.2,269.2c-11.5,0-20.8-9.3-20.8-20.8c0-11.5,9.3-20.8,20.8-20.8
				c11.5,0,20.8,9.3,20.8,20.8C-316.3,259.9-325.7,269.2-337.2,269.2z M-337.2,231.4c-9.4,0-17,7.6-17,17c0,9.4,7.6,17,17,17
				c9.4,0,17-7.6,17-17C-320.2,239-327.8,231.4-337.2,231.4z"/>
		</g>
		<g id="XMLID_44_">
			<path id="XMLID_45_" class="st0" d="M-330.2,256.3c-0.3,0-0.7-0.1-1-0.3l-5.9-3.5c-1.6-1-2.8-3-2.8-4.9v-7.8
				c0-1.1,0.9-1.9,1.9-1.9s1.9,0.9,1.9,1.9v7.8c0,0.5,0.5,1.3,0.9,1.6l5.9,3.5c0.9,0.5,1.2,1.7,0.7,2.6
				C-328.9,256-329.5,256.3-330.2,256.3z"/>
		</g>
	</g>
</g>
</svg>
