<?xml version="1.0" encoding="utf-8"?>
<!-- Generator: Adobe Illustrator 19.0.0, SVG Export Plug-In . SVG Version: 6.00 Build 0)  -->
<svg version="1.1" id="Layer_1" xmlns="http://www.w3.org/2000/svg" xmlns:xlink="http://www.w3.org/1999/xlink" x="0px" y="0px"
	 viewBox="-358 227.6 41.6 41.7" style="enable-background:new -358 227.6 41.6 41.7;" xml:space="preserve">
<style type="text/css">
	.st0{fill:#2162FF;}
</style>
<g id="XMLID_1_">
	<g>
		<g id="XMLID_71_">
			<path id="XMLID_72_" class="st0" d="M-338.9,269.2h-7.9c-7.7,0-11.2-3.6-11.2-11.2v-7.9c0-7.7,3.6-11.2,11.2-11.2h7.9
				c7.7,0,11.2,3.6,11.2,11.2v7.9C-327.6,265.7-331.2,269.2-338.9,269.2z M-346.8,242.9c-5.5,0-7.2,1.8-7.2,7.2v7.9
				c0,5.5,1.8,7.2,7.2,7.2h7.9c5.5,0,7.2-1.8,7.2-7.2v-7.9c0-5.5-1.8-7.2-7.2-7.2H-346.8z"/>
		</g>
		<g id="XMLID_67_">
			<path id="XMLID_68_" class="st0" d="M-327.6,257.9h-2.1c-1.1,0-2-0.9-2-2v-5.8c0-5.5-1.8-7.2-7.2-7.2h-5.8c-1.1,0-2-0.9-2-2v-2.1
				c0-7.7,3.6-11.2,11.2-11.2h7.9c7.7,0,11.2,3.6,11.2,11.2v7.9C-316.3,254.4-319.9,257.9-327.6,257.9z M-327.6,253.9L-327.6,253.9
				c5.5,0,7.3-1.8,7.3-7.2v-7.9c0-5.5-1.8-7.2-7.2-7.2h-7.9c-5.5,0-7.2,1.8-7.2,7.2v0.1h3.8c7.7,0,11.2,3.6,11.2,11.2V253.9z"/>
		</g>
	</g>
</g>
</svg>
