<?xml version="1.0" encoding="utf-8"?>
<!-- Generator: Adobe Illustrator 19.0.0, SVG Export Plug-In . SVG Version: 6.00 Build 0)  -->
<svg version="1.1" id="Layer_1" xmlns="http://www.w3.org/2000/svg" xmlns:xlink="http://www.w3.org/1999/xlink" x="0px" y="0px"
	 viewBox="-358 227.6 38.2 41.7" style="enable-background:new -358 227.6 38.2 41.7;" xml:space="preserve">
<style type="text/css">
	.st0{fill:#2162FF;}
</style>
<g id="XMLID_6157_">
	<g>
		<g id="XMLID_176_">
			<path id="XMLID_177_" class="st0" d="M-346.3,237.2c-1.1,0-2-0.9-2-2v-5.7c0-1.1,0.9-2,2-2s2,0.9,2,2v5.7
				C-344.3,236.3-345.2,237.2-346.3,237.2z"/>
		</g>
		<g id="XMLID_174_">
			<path id="XMLID_175_" class="st0" d="M-331.2,237.2c-1.1,0-2-0.9-2-2v-5.7c0-1.1,0.9-2,2-2s2,0.9,2,2v5.7
				C-329.2,236.3-330.1,237.2-331.2,237.2z"/>
		</g>
		<g id="XMLID_172_">
			<path id="XMLID_173_" class="st0" d="M-322.7,244.9h-32.1c-1.1,0-2-0.9-2-2s0.9-2,2-2h32.1c1.1,0,2,0.9,2,2
				S-321.6,244.9-322.7,244.9z"/>
		</g>
		<g id="XMLID_168_">
			<path id="XMLID_169_" class="st0" d="M-331.2,269.2h-15.1c-7.2,0-11.4-4.2-11.4-11.4v-16c0-7.2,4.2-11.4,11.4-11.4h15.1
				c7.2,0,11.4,4.2,11.4,11.4v16C-319.8,265.1-323.9,269.2-331.2,269.2z M-346.3,234.3c-5,0-7.5,2.4-7.5,7.5v16c0,5,2.4,7.5,7.5,7.5
				h15.1c5,0,7.5-2.4,7.5-7.5v-16c0-5-2.4-7.5-7.5-7.5H-346.3z"/>
		</g>
		<g id="XMLID_166_">
			<path id="XMLID_167_" class="st0" d="M-331.7,253.6c-1.1,0-2-0.9-2-2s0.9-2,1.9-2h0c1.1,0,2,0.9,2,2S-330.6,253.6-331.7,253.6z"
				/>
		</g>
		<g id="XMLID_164_">
			<path id="XMLID_165_" class="st0" d="M-331.7,259.2c-1.1,0-2-0.9-2-2s0.9-2,1.9-2h0c1.1,0,2,0.9,2,2S-330.6,259.2-331.7,259.2z"
				/>
		</g>
		<g id="XMLID_162_">
			<path id="XMLID_163_" class="st0" d="M-338.7,253.6c-1.1,0-2-0.9-2-2s0.9-2,1.9-2h0c1.1,0,2,0.9,2,2S-337.6,253.6-338.7,253.6z"
				/>
		</g>
		<g id="XMLID_160_">
			<path id="XMLID_161_" class="st0" d="M-338.7,259.2c-1.1,0-2-0.9-2-2s0.9-2,1.9-2h0c1.1,0,2,0.9,2,2S-337.6,259.2-338.7,259.2z"
				/>
		</g>
		<g id="XMLID_158_">
			<path id="XMLID_159_" class="st0" d="M-345.7,253.6c-1.1,0-2-0.9-2-2s0.9-2,1.9-2h0c1.1,0,2,0.9,2,2S-344.6,253.6-345.7,253.6z"
				/>
		</g>
		<g id="XMLID_156_">
			<path id="XMLID_157_" class="st0" d="M-345.7,259.2c-1.1,0-2-0.9-2-2s0.9-2,1.9-2h0c1.1,0,2,0.9,2,2S-344.6,259.2-345.7,259.2z"
				/>
		</g>
	</g>
</g>
</svg>
