<?xml version="1.0" encoding="utf-8"?>
<!-- Generator: Adobe Illustrator 19.0.0, SVG Export Plug-In . SVG Version: 6.00 Build 0)  -->
<svg version="1.1" id="Layer_1" xmlns="http://www.w3.org/2000/svg" xmlns:xlink="http://www.w3.org/1999/xlink" x="0px" y="0px"
	 viewBox="0 0 128.3 141.7" style="enable-background:new 0 0 128.3 141.7;" xml:space="preserve">
<style type="text/css">
	.st0{fill:#414042;}
</style>
<g id="XMLID_548_">
	<g id="XMLID_609_">
		<path id="XMLID_6806_" class="st0" d="M123.8,35.7c-0.1,0-0.3,0-0.5,0c-35.1-3.5-70.2-4.8-104.9-1.3L5,35.7
			C2.5,36,0.3,34.1,0,31.6c-0.2-2.5,1.6-4.7,4.1-4.9l13.5-1.3c35.2-3.6,70.9-2.2,106.7,1.3c2.5,0.2,4.3,2.5,4.1,5
			C128.1,34,126.1,35.7,123.8,35.7z"/>
	</g>
	<g id="XMLID_556_">
		<path id="XMLID_6805_" class="st0" d="M41,29c-0.2,0-0.5,0-0.8-0.1c-2.5-0.4-4.1-2.7-3.7-5.2l1.5-8.7c1.1-6.6,2.5-14.8,17.5-14.8
			h17.4c15.1,0,16.5,8.6,17.5,14.9l1.4,8.6c0.4,2.5-1.2,4.8-3.7,5.2c-2.4,0.4-4.8-1.2-5.2-3.7l-1.5-8.6c-0.9-5.8-1.2-7.3-8.6-7.3
			H55.5c-7.4,0-7.6,1.2-8.6,7.2l-1.5,8.7C45.1,27.5,43.2,29,41,29z"/>
	</g>
	<g id="XMLID_555_">
		<path id="XMLID_6803_" class="st0" d="M85.4,141.9H42.9c-22.7,0-23.6-12.6-24.3-22.7l-4.3-66.8c-0.2-2.5,1.7-4.6,4.2-4.8
			c2.3-0.2,4.6,1.7,4.8,4.2l4.3,66.7c0.7,10.1,1,14.3,15.3,14.3h42.5c14.3,0,14.6-4.2,15.3-14.3l4.3-66.7c0.2-2.5,2.5-4.4,4.8-4.2
			c2.5,0.2,4.4,2.3,4.2,4.8l-4.3,66.7C109.1,129.3,108.2,141.9,85.4,141.9z"/>
	</g>
	<g id="XMLID_552_">
		<path id="XMLID_6801_" class="st0" d="M75.2,105.4H53.1c-2.5,0-4.5-2-4.5-4.5s2-4.5,4.5-4.5h22.1c2.5,0,4.5,2,4.5,4.5
			S77.7,105.4,75.2,105.4z"/>
	</g>
	<g id="XMLID_551_">
		<path id="XMLID_6800_" class="st0" d="M80.7,78.9H47.6c-2.5,0-4.5-2-4.5-4.5s2-4.5,4.5-4.5h33.1c2.5,0,4.5,2,4.5,4.5
			S83.2,78.9,80.7,78.9z"/>
	</g>
</g>
</svg>
