<?xml version="1.0" encoding="utf-8"?>
<!-- Generator: Adobe Illustrator 19.0.0, SVG Export Plug-In . SVG Version: 6.00 Build 0)  -->
<svg version="1.1" id="Layer_1" xmlns="http://www.w3.org/2000/svg" xmlns:xlink="http://www.w3.org/1999/xlink" x="0px" y="0px"
	 viewBox="-358 227.6 38 41.7" style="enable-background:new -358 227.6 38 41.7;" xml:space="preserve">
<style type="text/css">
	.st0{fill:#2162FF;}
</style>
<g id="XMLID_7525_">
	<g>
		<path id="XMLID_39_" class="st0" d="M-351.6,262.8c-1.2,0-2.3-0.4-3.1-1.2c-1-1-1.5-2.4-1.3-4l0.7-6.3c0.1-1.2,0.9-2.8,1.7-3.6
			l16-16.9c4-4.2,8.2-4.3,12.4-0.4c4.2,4,4.3,8.2,0.4,12.4l-16,16.9c-0.8,0.9-2.3,1.7-3.5,1.9l-6.3,1.1
			C-351,262.8-351.3,262.8-351.6,262.8z M-331.3,230.5c-1.5,0-2.8,0.9-4.1,2.3l-16,17c-0.4,0.4-0.8,1.4-0.9,1.9l-0.7,6.3
			c-0.1,0.6,0.1,1.2,0.4,1.5c0.4,0.3,0.9,0.4,1.5,0.4l6.3-1.1c0.6-0.1,1.5-0.6,1.9-1l16-16.9c2.4-2.6,3.3-4.9-0.2-8.3
			C-328.8,231.1-330.1,230.5-331.3,230.5z"/>
		<path id="XMLID_38_" class="st0" d="M-328.6,246.1C-328.6,246.1-328.7,246.1-328.6,246.1c-6.2-0.6-11.1-5.2-12-11.3
			c-0.1-0.8,0.4-1.5,1.2-1.7c0.8-0.1,1.5,0.4,1.7,1.2c0.7,4.7,4.6,8.3,9.3,8.8c0.8,0.1,1.4,0.8,1.3,1.6
			C-327.2,245.6-327.9,246.1-328.6,246.1z"/>
		<path id="XMLID_37_" class="st0" d="M-321.5,269.1h-35.1c-0.8,0-1.5-0.7-1.5-1.5s0.7-1.5,1.5-1.5h35.1c0.8,0,1.5,0.7,1.5,1.5
			S-320.7,269.1-321.5,269.1z"/>
	</g>
</g>
</svg>
