<?xml version="1.0" encoding="utf-8"?>
<!-- Generator: Adobe Illustrator 19.0.0, SVG Export Plug-In . SVG Version: 6.00 Build 0)  -->
<svg version="1.1" id="Layer_1" xmlns="http://www.w3.org/2000/svg" xmlns:xlink="http://www.w3.org/1999/xlink" x="0px" y="0px"
	 viewBox="-358 227.6 36.7 41.7" style="enable-background:new -358 227.6 36.7 41.7;" xml:space="preserve">
<style type="text/css">
	.st0{fill:#2162FF;}
</style>
<g id="XMLID_1603_">
	<g>
		<g id="XMLID_46_">
			<path id="XMLID_47_" class="st0" d="M-341.8,269.4c-0.9,0-1.8-0.2-2.7-0.7c-1.7-1-2.7-2.7-2.7-4.6v-10.4c0-1-0.7-2.5-1.3-3.3
				l-7.4-7.8c-1.2-1.2-2.2-3.3-2.2-4.9v-4.5c0-3.1,2.3-5.5,5.3-5.5h26c2.9,0,5.3,2.4,5.3,5.3v4.3c0,2-1.2,4.4-2.4,5.5l-8.5,7.5
				c-0.8,0.7-1.5,2.3-1.5,3.5v8.5c0,1.7-1.1,3.7-2.4,4.5l-2.7,1.8C-339.8,269.1-340.8,269.4-341.8,269.4z M-352.7,230.3
				c-1.4,0-2.6,1.2-2.6,2.8v4.5c0,0.8,0.6,2.2,1.4,3l7.5,7.9c1,1.2,2,3.3,2,5.1V264c0,0.9,0.5,1.7,1.3,2.2c0.9,0.5,1.9,0.5,2.7,0
				l2.7-1.8c0.6-0.3,1.1-1.5,1.1-2.2v-8.5c0-2.1,1-4.4,2.5-5.6l8.4-7.5c0.7-0.7,1.5-2.3,1.5-3.5v-4.3c0-1.4-1.1-2.6-2.6-2.6H-352.7z
				"/>
		</g>
		<g id="XMLID_44_">
			<path id="XMLID_45_" class="st0" d="M-351.5,245.9c-0.2,0-0.5-0.1-0.7-0.2c-0.6-0.4-0.8-1.3-0.4-1.9l9.7-15.6
				c0.4-0.6,1.3-0.8,1.9-0.4c0.6,0.4,0.8,1.3,0.4,1.9l-9.7,15.6C-350.6,245.7-351,245.9-351.5,245.9z"/>
		</g>
	</g>
</g>
</svg>
