<?xml version="1.0" encoding="utf-8"?>
<!-- Generator: Adobe Illustrator 19.0.0, SVG Export Plug-In . SVG Version: 6.00 Build 0)  -->
<svg version="1.1" id="Layer_1" xmlns="http://www.w3.org/2000/svg" xmlns:xlink="http://www.w3.org/1999/xlink" x="0px" y="0px"
	 viewBox="-358 227.6 44.1 42.6" style="enable-background:new -358 227.6 44.1 42.6;" xml:space="preserve">
<style type="text/css">
	.st0{fill:#FFFFFF;}
</style>
<g id="XMLID_544_">
	<path id="XMLID_565_" class="st0" d="M-340.6,246.3h-15.4c-0.9,0-1.7-0.7-1.7-1.7v-15.4c0-0.9,0.7-1.7,1.7-1.7h15.4
		c0.9,0,1.7,0.7,1.7,1.7v15.4C-339,245.6-339.7,246.3-340.6,246.3z"/>
	<path id="XMLID_564_" class="st0" d="M-315.6,246.3H-331c-0.9,0-1.7-0.7-1.7-1.7v-15.4c0-0.9,0.7-1.7,1.7-1.7h15.4
		c0.9,0,1.7,0.7,1.7,1.7v15.4C-313.9,245.6-314.7,246.3-315.6,246.3z"/>
	<path id="XMLID_563_" class="st0" d="M-340.6,270.2h-15.4c-0.9,0-1.7-0.7-1.7-1.7v-15.4c0-0.9,0.7-1.7,1.7-1.7h15.4
		c0.9,0,1.7,0.7,1.7,1.7v15.4C-339,269.4-339.7,270.2-340.6,270.2z"/>
	<path id="XMLID_562_" class="st0" d="M-315.6,270.2H-331c-0.9,0-1.7-0.7-1.7-1.7v-15.4c0-0.9,0.7-1.7,1.7-1.7h15.4
		c0.9,0,1.7,0.7,1.7,1.7v15.4C-313.9,269.4-314.7,270.2-315.6,270.2z"/>
</g>
</svg>
