<?xml version="1.0" encoding="utf-8"?>
<!-- Generator: Adobe Illustrator 19.0.0, SVG Export Plug-In . SVG Version: 6.00 Build 0)  -->
<svg version="1.1" id="Layer_1" xmlns="http://www.w3.org/2000/svg" xmlns:xlink="http://www.w3.org/1999/xlink" x="0px" y="0px"
	 viewBox="-358 227.6 41.7 41.7" style="enable-background:new -358 227.6 41.7 41.7;" xml:space="preserve">
<style type="text/css">
	.st0{fill:#FFFFFF;}
	.st1{fill:#2162FF;}
</style>
<circle id="XMLID_1332_" class="st0" cx="-337.2" cy="248.4" r="20.8"/>
<path id="XMLID_1023_" class="st1" d="M-333.1,259.4h-8.2c-3.7,0-5.9-2.2-5.9-5.9v-10.3c0-3.7,2.2-5.9,5.9-5.9h8.2
	c3.7,0,5.9,2.2,5.9,5.9v10.3C-327.2,257.3-329.3,259.4-333.1,259.4z M-329.7,244.8c0-0.4-0.3-0.8-0.8-0.8h-2.1
	c-0.7,0-1.3-0.6-1.3-1.3v-2.1c0-0.4-0.3-0.8-0.8-0.8s-0.8,0.3-0.8,0.8v2.1c0,1.6,1.3,2.8,2.8,2.8h2.1
	C-330.1,245.6-329.7,245.2-329.7,244.8z M-336.4,249.4c0-0.4-0.3-0.8-0.8-0.8h-4.1c-0.4,0-0.8,0.3-0.8,0.8s0.3,0.8,0.8,0.8h4.1
	C-336.7,250.2-336.4,249.9-336.4,249.4z M-332.3,253.5c0-0.4-0.3-0.8-0.8-0.8h-8.2c-0.4,0-0.8,0.3-0.8,0.8s0.3,0.8,0.8,0.8h8.2
	C-332.6,254.3-332.3,254-332.3,253.5z"/>
</svg>
