<?xml version="1.0" encoding="utf-8"?>
<!-- Generator: Adobe Illustrator 19.0.0, SVG Export Plug-In . SVG Version: 6.00 Build 0)  -->
<svg version="1.1" id="Layer_1" xmlns="http://www.w3.org/2000/svg" xmlns:xlink="http://www.w3.org/1999/xlink" x="0px" y="0px"
	 viewBox="-358 227.6 51.8 44.1" style="enable-background:new -358 227.6 51.8 44.1;" xml:space="preserve">
<style type="text/css">
	.st0{fill:#FFFFFF;}
</style>
<path id="XMLID_3238_" class="st0" d="M-319.1,271.6H-345c-7.8,0-13-3.9-13-13v-18.1c0-9.1,5.2-13,13-13h25.9c7.8,0,13,3.9,13,13
	v18.1C-306.2,267.8-311.3,271.6-319.1,271.6z M-325.9,250l8.1-6.5c0.9-0.8,1.1-2.1,0.3-3.1c-0.8-0.9-2.1-1.1-3.1-0.3l-8.1,6.5
	c-1.9,1.5-5.1,1.5-7,0l-8.1-6.5c-0.9-0.8-2.3-0.6-3.1,0.3c-0.8,0.9-0.6,2.3,0.3,3.1l8.1,6.5c1.7,1.4,4,2.1,6.2,2.1
	C-329.9,252.1-327.6,251.4-325.9,250z"/>
</svg>
