<?xml version="1.0" encoding="utf-8"?>
<!-- Generator: Adobe Illustrator 19.0.0, SVG Export Plug-In . SVG Version: 6.00 Build 0)  -->
<svg version="1.1" id="Layer_1" xmlns="http://www.w3.org/2000/svg" xmlns:xlink="http://www.w3.org/1999/xlink" x="0px" y="0px"
	 viewBox="0 0 141.7 141.7" style="enable-background:new 0 0 141.7 141.7;" xml:space="preserve">
<style type="text/css">
	.st0{fill:#414042;}
	.st1{fill:#FFFFFF;}
</style>
<path id="XMLID_1238_" class="st0" d="M86.3,141.7H55.4C24.8,141.7,0,116.9,0,86.3l0-30.9C0,24.8,24.8,0,55.4,0l30.9,0
	c30.6,0,55.4,24.8,55.4,55.4v30.9C141.7,116.9,116.9,141.7,86.3,141.7z"/>
<path id="XMLID_1226_" class="st1" d="M88.6,101H53.1c-10.6,0-17.7-5.3-17.7-17.7V58.5c0-12.4,7.1-17.7,17.7-17.7h35.4
	c10.6,0,17.7,5.3,17.7,17.7v24.8C106.3,95.7,99.2,101,88.6,101z"/>
<g id="XMLID_1225_">
	<path id="XMLID_3_" class="st0" d="M70.8,75.3c-3.3,0-6.6-1-9.1-3.1l-11.1-8.9c-1.7-1.4-2-3.9-0.6-5.6c1.4-1.7,3.9-2,5.6-0.6
		L66.7,66c2.2,1.7,6.1,1.7,8.3,0l11.1-8.9c1.7-1.4,4.2-1.1,5.6,0.6c1.4,1.7,1.1,4.2-0.6,5.6L80,72.2C77.4,74.3,74.1,75.3,70.8,75.3z
		"/>
</g>
</svg>
