<?xml version="1.0" encoding="utf-8"?>
<!-- Generator: Adobe Illustrator 19.0.0, SVG Export Plug-In . SVG Version: 6.00 Build 0)  -->
<svg version="1.1" id="Layer_1" xmlns="http://www.w3.org/2000/svg" xmlns:xlink="http://www.w3.org/1999/xlink" x="0px" y="0px"
	 viewBox="-358 227.6 40.9 41.7" style="enable-background:new -358 227.6 40.9 41.7;" xml:space="preserve">
<style type="text/css">
	.st0{fill:#2162FF;}
</style>
<g id="XMLID_5537_">
	<g id="XMLID_5549_">
		<path id="XMLID_1350_" class="st0" d="M-335.6,254.1h-1.9c-0.9,0-1.6-0.7-1.6-1.6c0-0.9,0.7-1.6,1.6-1.6h1.9c1.2,0,2.2-1,2.2-2.2
			v-17.3h-15.4c-2.2,0-4.2,1.2-5.2,3.1c-0.4,0.8-1.4,1-2.2,0.6c-0.8-0.4-1.1-1.4-0.6-2.2c1.6-2.9,4.7-4.7,8-4.7h17
			c0.9,0,1.6,0.7,1.6,1.6v18.9C-330.2,251.7-332.6,254.1-335.6,254.1z"/>
	</g>
	<g id="XMLID_5548_">
		<path id="XMLID_1349_" class="st0" d="M-324.2,265.5h-1.9c-0.9,0-1.6-0.7-1.6-1.6c0-1.2-1-2.2-2.2-2.2c-1.2,0-2.2,1-2.2,2.2
			c0,0.9-0.7,1.6-1.6,1.6h-7.6c-0.9,0-1.6-0.7-1.6-1.6c0-1.2-1-2.2-2.2-2.2c-1.2,0-2.2,1-2.2,2.2c0,0.9-0.7,1.6-1.6,1.6h-1.9
			c-4,0-7.3-3.3-7.3-7.3c0-0.9,0.7-1.6,1.6-1.6c0.9,0,1.6,0.7,1.6,1.6c0,2.2,1.8,4.1,4.1,4.1h0.5c0.7-2.2,2.7-3.8,5.2-3.8
			c2.4,0,4.5,1.6,5.1,3.8h4.8c0.7-2.2,2.7-3.8,5.1-3.8s4.5,1.6,5.2,3.8h0.5c2.2,0,4.1-1.8,4.1-4.1v-4.1h-4.1c-1.9,0-3.5-1.6-3.5-3.5
			v-5.7c0-1.8,1.4-3.3,3.2-3.5l-1.9-3.3c-0.4-0.7-1.1-1.1-1.9-1.1h-1.9v11.6c0,3-2.4,5.4-5.4,5.4h-1.9c-0.9,0-1.6-0.7-1.6-1.6
			c0-0.9,0.7-1.6,1.6-1.6h1.9c1.2,0,2.2-1,2.2-2.2v-13.3c0-0.9,0.7-1.6,1.6-1.6h3.5c1.9,0,3.7,1,4.7,2.7l3.2,5.7
			c0.3,0.5,0.3,1.1,0,1.6c-0.3,0.5-0.8,0.8-1.4,0.8h-2.4c-0.2,0-0.3,0.1-0.3,0.3v5.7c0,0.2,0.1,0.3,0.3,0.3h5.7
			c0.9,0,1.6,0.7,1.6,1.6v5.7C-316.9,262.2-320.2,265.5-324.2,265.5z"/>
	</g>
	<g id="XMLID_5547_">
		<path id="XMLID_1346_" class="st0" d="M-345,269.2c-3,0-5.4-2.4-5.4-5.4s2.4-5.4,5.4-5.4c3,0,5.4,2.4,5.4,5.4
			S-342.1,269.2-345,269.2z M-345,261.7c-1.2,0-2.2,1-2.2,2.2c0,1.2,1,2.2,2.2,2.2c1.2,0,2.2-1,2.2-2.2
			C-342.9,262.6-343.8,261.7-345,261.7z"/>
	</g>
	<g id="XMLID_5546_">
		<path id="XMLID_1341_" class="st0" d="M-329.9,269.2c-3,0-5.4-2.4-5.4-5.4s2.4-5.4,5.4-5.4s5.4,2.4,5.4,5.4
			S-326.9,269.2-329.9,269.2z M-329.9,261.7c-1.2,0-2.2,1-2.2,2.2c0,1.2,1,2.2,2.2,2.2c1.2,0,2.2-1,2.2-2.2
			C-327.7,262.6-328.7,261.7-329.9,261.7z"/>
	</g>
	<g id="XMLID_5545_">
		<path id="XMLID_1338_" class="st0" d="M-318.5,254.1h-5.7c-1.9,0-3.5-1.6-3.5-3.5v-5.7c0-1.9,1.6-3.5,3.5-3.5h2.4
			c0.6,0,1.1,0.3,1.4,0.8l3.2,5.7c0.1,0.2,0.2,0.5,0.2,0.8v3.8C-316.9,253.4-317.6,254.1-318.5,254.1z M-324.2,244.6
			c-0.2,0-0.3,0.1-0.3,0.3v5.7c0,0.2,0.1,0.3,0.3,0.3h4.1v-1.8l-2.6-4.5H-324.2z"/>
	</g>
	<g id="XMLID_5544_">
		<path id="XMLID_1337_" class="st0" d="M-345,242.7h-11.4c-0.9,0-1.6-0.7-1.6-1.6c0-0.9,0.7-1.6,1.6-1.6h11.4
			c0.9,0,1.6,0.7,1.6,1.6C-343.4,242-344.1,242.7-345,242.7z"/>
	</g>
	<g id="XMLID_5543_">
		<path id="XMLID_1336_" class="st0" d="M-348.8,248.4h-7.6c-0.9,0-1.6-0.7-1.6-1.6s0.7-1.6,1.6-1.6h7.6c0.9,0,1.6,0.7,1.6,1.6
			S-347.9,248.4-348.8,248.4z"/>
	</g>
	<g id="XMLID_5542_">
		<path id="XMLID_1335_" class="st0" d="M-352.6,254.1h-3.8c-0.9,0-1.6-0.7-1.6-1.6c0-0.9,0.7-1.6,1.6-1.6h3.8
			c0.9,0,1.6,0.7,1.6,1.6C-351,253.4-351.7,254.1-352.6,254.1z"/>
	</g>
</g>
</svg>
