<?xml version="1.0" encoding="utf-8"?>
<!-- Generator: Adobe Illustrator 19.0.0, SVG Export Plug-In . SVG Version: 6.00 Build 0)  -->
<svg version="1.1" id="Layer_1" xmlns="http://www.w3.org/2000/svg" xmlns:xlink="http://www.w3.org/1999/xlink" x="0px" y="0px"
	 viewBox="-358 227.6 41.7 41.7" style="enable-background:new -358 227.6 41.7 41.7;" xml:space="preserve">
<style type="text/css">
	.st0{fill:#FFFFFF;}
	.st1{fill:#2162FF;}
</style>
<circle id="XMLID_1367_" class="st0" cx="-337.2" cy="248.4" r="20.8"/>
<g id="XMLID_5537_">
	<g id="XMLID_5549_">
		<path id="XMLID_1350_" class="st1" d="M-336,251.8h-1.1c-0.5,0-1-0.4-1-1s0.4-1,1-1h1.1c0.7,0,1.3-0.6,1.3-1.3v-10.5h-9.3
			c-1.3,0-2.5,0.7-3.1,1.8c-0.3,0.5-0.9,0.6-1.3,0.4c-0.5-0.3-0.6-0.9-0.4-1.3c1-1.8,2.8-2.8,4.8-2.8h10.3c0.5,0,1,0.4,1,1v11.4
			C-332.8,250.4-334.2,251.8-336,251.8z"/>
	</g>
	<g id="XMLID_5548_">
		<path id="XMLID_1349_" class="st1" d="M-329.2,258.7h-1.1c-0.5,0-1-0.4-1-1c0-0.7-0.6-1.3-1.3-1.3c-0.7,0-1.3,0.6-1.3,1.3
			c0,0.5-0.4,1-1,1h-4.6c-0.5,0-1-0.4-1-1c0-0.7-0.6-1.3-1.3-1.3c-0.7,0-1.3,0.6-1.3,1.3c0,0.5-0.4,1-1,1h-1.1c-2.4,0-4.4-2-4.4-4.4
			c0-0.5,0.4-1,1-1s1,0.4,1,1c0,1.4,1.1,2.5,2.5,2.5h0.3c0.4-1.3,1.7-2.3,3.1-2.3s2.7,1,3.1,2.3h2.9c0.4-1.3,1.6-2.3,3.1-2.3
			s2.7,1,3.1,2.3h0.3c1.4,0,2.5-1.1,2.5-2.5v-2.5h-2.5c-1.2,0-2.1-0.9-2.1-2.1v-3.4c0-1.1,0.8-2,1.9-2.1l-1.1-2
			c-0.2-0.4-0.7-0.7-1.1-0.7h-1.1v7c0,1.8-1.5,3.3-3.3,3.3h-1.1c-0.5,0-1-0.4-1-1s0.4-1,1-1h1.1c0.7,0,1.3-0.6,1.3-1.3v-8
			c0-0.5,0.4-1,1-1h2.1c1.2,0,2.2,0.6,2.8,1.6l2,3.4c0.2,0.3,0.2,0.7,0,1c-0.2,0.3-0.5,0.5-0.8,0.5h-1.5c-0.1,0-0.2,0.1-0.2,0.2v3.4
			c0,0.1,0.1,0.2,0.2,0.2h3.4c0.5,0,1,0.4,1,1v3.4C-324.8,256.7-326.8,258.7-329.2,258.7z"/>
	</g>
	<g id="XMLID_5547_">
		<path id="XMLID_1346_" class="st1" d="M-341.7,261c-1.8,0-3.3-1.5-3.3-3.3s1.5-3.3,3.3-3.3s3.3,1.5,3.3,3.3S-339.9,261-341.7,261z
			 M-341.7,256.4c-0.7,0-1.3,0.6-1.3,1.3c0,0.7,0.6,1.3,1.3,1.3c0.7,0,1.3-0.6,1.3-1.3C-340.4,257-341,256.4-341.7,256.4z"/>
	</g>
	<g id="XMLID_5546_">
		<path id="XMLID_1341_" class="st1" d="M-332.6,261c-1.8,0-3.3-1.5-3.3-3.3s1.5-3.3,3.3-3.3s3.3,1.5,3.3,3.3S-330.8,261-332.6,261z
			 M-332.6,256.4c-0.7,0-1.3,0.6-1.3,1.3c0,0.7,0.6,1.3,1.3,1.3c0.7,0,1.3-0.6,1.3-1.3C-331.3,257-331.9,256.4-332.6,256.4z"/>
	</g>
	<g id="XMLID_5545_">
		<path id="XMLID_1338_" class="st1" d="M-325.7,251.8h-3.4c-1.2,0-2.1-0.9-2.1-2.1v-3.4c0-1.2,0.9-2.1,2.1-2.1h1.5
			c0.3,0,0.7,0.2,0.8,0.5l2,3.4c0.1,0.1,0.1,0.3,0.1,0.5v2.3C-324.8,251.4-325.2,251.8-325.7,251.8z M-329.2,246.1
			c-0.1,0-0.2,0.1-0.2,0.2v3.4c0,0.1,0.1,0.2,0.2,0.2h2.5v-1.1l-1.5-2.7H-329.2z"/>
	</g>
	<g id="XMLID_5544_">
		<path id="XMLID_1337_" class="st1" d="M-341.7,245h-6.9c-0.5,0-1-0.4-1-1s0.4-1,1-1h6.9c0.5,0,1,0.4,1,1S-341.2,245-341.7,245z"/>
	</g>
	<g id="XMLID_5543_">
		<path id="XMLID_1336_" class="st1" d="M-344,248.4h-4.6c-0.5,0-1-0.4-1-1s0.4-1,1-1h4.6c0.5,0,1,0.4,1,1S-343.5,248.4-344,248.4z"
			/>
	</g>
	<g id="XMLID_5542_">
		<path id="XMLID_1335_" class="st1" d="M-346.3,251.8h-2.3c-0.5,0-1-0.4-1-1s0.4-1,1-1h2.3c0.5,0,1,0.4,1,1
			S-345.8,251.8-346.3,251.8z"/>
	</g>
</g>
</svg>
