<?xml version="1.0" encoding="utf-8"?>
<!-- Generator: Adobe Illustrator 19.0.0, SVG Export Plug-In . SVG Version: 6.00 Build 0)  -->
<svg version="1.1" id="Layer_1" xmlns="http://www.w3.org/2000/svg" xmlns:xlink="http://www.w3.org/1999/xlink" x="0px" y="0px"
	 viewBox="0 0 124.5 141.7" style="enable-background:new 0 0 124.5 141.7;" xml:space="preserve">
<style type="text/css">
	.st0{fill:#292D32;}
</style>
<g id="XMLID_3603_">
	<g id="XMLID_3606_">
		<path id="XMLID_5_" class="st0" d="M62.2,141.7C27.9,141.7,0,113.8,0,79.4c0-34.3,27.9-62.2,62.2-62.2c6.9,0,13.6,1,20.5,3
			c3.2,0.9,4.9,4.3,4,7.4c-0.9,3.2-4.2,4.9-7.4,4c-5.7-1.7-11.3-2.5-17.1-2.5c-27.8,0-50.3,22.6-50.3,50.3
			c0,27.8,22.6,50.4,50.3,50.4c27.7,0,50.3-22.6,50.3-50.3c0-10-2.9-19.7-8.5-28c-1.8-2.7-1.1-6.4,1.7-8.3c2.7-1.8,6.4-1.1,8.3,1.7
			c6.9,10.3,10.5,22.2,10.5,34.6C124.5,113.8,96.5,141.7,62.2,141.7z"/>
	</g>
	<g id="XMLID_3605_">
		<path id="XMLID_4_" class="st0" d="M89,33.5c-1.7,0-3.3-0.7-4.5-2L65.8,9.9c-2.2-2.5-1.9-6.2,0.6-8.4c2.5-2.2,6.2-1.9,8.4,0.6
			l18.8,21.6c2.2,2.5,1.9,6.2-0.6,8.4C91.8,33,90.4,33.5,89,33.5z"/>
	</g>
	<g id="XMLID_3604_">
		<path id="XMLID_3_" class="st0" d="M67.2,49.4c-1.8,0-3.7-0.8-4.8-2.4c-1.9-2.7-1.4-6.4,1.3-8.3l21.9-16c2.7-1.9,6.4-1.3,8.3,1.3
			c1.9,2.7,1.4,6.4-1.3,8.3l-21.9,16C69.6,49.1,68.4,49.4,67.2,49.4z"/>
	</g>
</g>
</svg>
