<?xml version="1.0" encoding="utf-8"?>
<!-- Generator: Adobe Illustrator 19.0.0, SVG Export Plug-In . SVG Version: 6.00 Build 0)  -->
<svg version="1.1" id="Layer_1" xmlns="http://www.w3.org/2000/svg" xmlns:xlink="http://www.w3.org/1999/xlink" x="0px" y="0px"
	 viewBox="-358 227.6 41.5 41.7" style="enable-background:new -358 227.6 41.5 41.7;" xml:space="preserve">
<style type="text/css">
	.st0{fill:#2162FF;}
</style>
<g id="XMLID_1612_">
	<g>
		<g id="XMLID_62_">
			<path id="XMLID_63_" class="st0" d="M-339.2,265.3c-10.4,0-18.8-8.5-18.8-18.8c0-10.4,8.5-18.8,18.8-18.8
				c10.4,0,18.8,8.5,18.8,18.8C-320.3,256.8-328.8,265.3-339.2,265.3z M-339.2,230.8c-8.6,0-15.6,7-15.6,15.6s7,15.6,15.6,15.6
				c8.6,0,15.6-7,15.6-15.6S-330.6,230.8-339.2,230.8z"/>
		</g>
		<g id="XMLID_58_">
			<path id="XMLID_59_" class="st0" d="M-321.5,269.1c-0.2,0-0.3,0-0.5,0c-0.9-0.1-2.7-0.8-3.6-3.6v0c-0.5-1.5-0.3-3,0.5-4.2
				c0.8-1.1,2.3-1.7,3.7-1.7c2,0,3.6,0.8,4.3,2.2c0.7,1.4,0.5,3.1-0.6,4.8C-318.9,268.7-320.5,269.1-321.5,269.1z M-322.4,264.5
				c0.3,1,0.7,1.4,0.9,1.4c0.2,0,0.7-0.2,1.3-1.1c0.5-0.7,0.6-1.3,0.4-1.5c-0.1-0.2-0.5-0.4-1.5-0.5c-0.5,0-0.9,0.1-1.1,0.4
				C-322.6,263.5-322.6,263.9-322.4,264.5L-322.4,264.5z"/>
		</g>
	</g>
</g>
</svg>
