<?xml version="1.0" encoding="UTF-8" standalone="no"?>
<!-- Generator: Adobe Illustrator 19.0.0, SVG Export Plug-In . SVG Version: 6.00 Build 0)  -->

<svg
   version="1.1"
   id="Layer_1"
   x="0px"
   y="0px"
   viewBox="-358 227.6 41.7 41.7"
   style="enable-background:new -358 227.6 41.7 41.7;"
   xml:space="preserve"
   sodipodi:docname="shop_cart.svg"
   inkscape:version="1.1 (c68e22c387, 2021-05-23)"
   xmlns:inkscape="http://www.inkscape.org/namespaces/inkscape"
   xmlns:sodipodi="http://sodipodi.sourceforge.net/DTD/sodipodi-0.dtd"
   xmlns="http://www.w3.org/2000/svg"
   xmlns:svg="http://www.w3.org/2000/svg"><defs
   id="defs9" /><sodipodi:namedview
   id="namedview7"
   pagecolor="#ffffff"
   bordercolor="#cccccc"
   borderopacity="1"
   inkscape:pageshadow="0"
   inkscape:pageopacity="1"
   inkscape:pagecheckerboard="0"
   showgrid="false"
   inkscape:zoom="13.769081"
   inkscape:cx="11.184479"
   inkscape:cy="7.8073472"
   inkscape:window-width="1920"
   inkscape:window-height="1001"
   inkscape:window-x="-9"
   inkscape:window-y="-9"
   inkscape:window-maximized="1"
   inkscape:current-layer="Layer_1" />
<style
   type="text/css"
   id="style2">
	.st0{fill:#FFFFFF;}
	.st1{fill:#2162FF;}
</style>
<circle
   id="XMLID_1066_"
   class="st0"
   cx="-337.2"
   cy="248.4"
   r="20.8" />

<path
   d="m -348.71552,239.22562 c -0.4202,0 -0.78037,-0.36017 -0.78037,-0.80038 0,-0.4202 0.36017,-0.78037 0.78037,-0.78037 h 2.04098 c 0.02,0 0.06,0 0.0801,0 0.72034,0.02 1.36065,0.16007 1.9009,0.50024 0.60029,0.38018 1.0405,0.96045 1.2806,1.82087 0,0.02 0,0.04 0.02,0.06 l 0.20009,0.80038 h 17.50834 c 0.4402,0 0.78037,0.36017 0.78037,0.78038 0,0.0801 -0.0201,0.16007 -0.04,0.24011 l -2.04097,8.22391 c -0.0801,0.36017 -0.40019,0.60029 -0.76036,0.60029 v 0 h -12.8061 c 0.28014,1.04049 0.56027,1.60076 0.94045,1.86089 0.46022,0.30014 1.2606,0.32014 2.60124,0.30014 h 0.02 v 0 h 9.0443 c 0.44021,0 0.78038,0.36017 0.78038,0.78037 0,0.44021 -0.36018,0.78038 -0.78038,0.78038 h -9.0443 v 0 c -1.66079,0.02 -2.68128,-0.02 -3.50168,-0.56027 -0.8404,-0.56027 -1.28061,-1.52073 -1.72081,-3.26155 v 0 l -2.68127,-10.14484 c 0,-0.02 0,-0.02 -0.02,-0.04 -0.12005,-0.44021 -0.32014,-0.74036 -0.60028,-0.90043 -0.28013,-0.18009 -0.66031,-0.26013 -1.10053,-0.26013 -0.02,0 -0.04,0 -0.06,0 z m 18.42877,16.08767 c 1.06051,0 1.92092,0.8604 1.92092,1.9209 0,1.06051 -0.86041,1.92092 -1.92092,1.92092 -1.0605,0 -1.92091,-0.86041 -1.92091,-1.92092 0,-1.0605 0.86041,-1.9209 1.92091,-1.9209 z m -8.42401,0 c 1.06051,0 1.92092,0.8604 1.92092,1.9209 0,1.06051 -0.86041,1.92092 -1.92092,1.92092 -1.0605,0 -1.92091,-0.86041 -1.92091,-1.92092 0,-1.0605 0.86041,-1.9209 1.92091,-1.9209 z m -4.04191,-12.92617 1.78084,6.7032 h 12.62601 l 1.66079,-6.7032 z"
   id="path826"
   style="fill:#2162ff;fill-opacity:1;stroke-width:1.3;stroke:#2162ff;stroke-opacity:1;stroke-miterlimit:4;stroke-dasharray:none" /></svg>
