<?xml version="1.0" encoding="utf-8"?>
<!-- Generator: Adobe Illustrator 19.0.0, SVG Export Plug-In . SVG Version: 6.00 Build 0)  -->
<svg version="1.1" id="Layer_1" xmlns="http://www.w3.org/2000/svg" xmlns:xlink="http://www.w3.org/1999/xlink" x="0px" y="0px"
	 viewBox="-358 227.6 44.1 25.7" style="enable-background:new -358 227.6 44.1 25.7;" xml:space="preserve">
<style type="text/css">
	.st0{fill:#2162FF;}
</style>
<g id="XMLID_1606_">
	<g>
		<g id="XMLID_48_">
			<path id="XMLID_49_" class="st0" d="M-315.2,230.2h-41.6c-0.7,0-1.3-0.6-1.3-1.3s0.6-1.3,1.3-1.3h41.6c0.7,0,1.3,0.6,1.3,1.3
				S-314.5,230.2-315.2,230.2z"/>
		</g>
		<g id="XMLID_46_">
			<path id="XMLID_47_" class="st0" d="M-322.1,241.8h-27.7c-0.7,0-1.3-0.6-1.3-1.3s0.6-1.3,1.3-1.3h27.7c0.7,0,1.3,0.6,1.3,1.3
				S-321.4,241.8-322.1,241.8z"/>
		</g>
		<g id="XMLID_44_">
			<path id="XMLID_45_" class="st0" d="M-331.4,253.3h-9.2c-0.7,0-1.3-0.6-1.3-1.3s0.6-1.3,1.3-1.3h9.2c0.7,0,1.3,0.6,1.3,1.3
				S-330.7,253.3-331.4,253.3z"/>
		</g>
	</g>
</g>
</svg>
