<?xml version="1.0" encoding="utf-8"?>
<!-- Generator: Adobe Illustrator 19.0.0, SVG Export Plug-In . SVG Version: 6.00 Build 0)  -->
<svg version="1.1" id="Layer_1" xmlns="http://www.w3.org/2000/svg" xmlns:xlink="http://www.w3.org/1999/xlink" x="0px" y="0px"
	 viewBox="-358 227.6 37.8 41.7" style="enable-background:new -358 227.6 37.8 41.7;" xml:space="preserve">
<style type="text/css">
	.st0{fill:#ED1C24;}
</style>
<g id="XMLID_2415_">
	<g id="XMLID_2424_">
		<path id="XMLID_2425_" class="st0" d="M-321.6,238c0,0-0.1,0-0.1,0c-10.3-1-20.7-1.4-30.9-0.4l-4,0.4c-0.7,0.1-1.4-0.5-1.5-1.2
			c-0.1-0.7,0.5-1.4,1.2-1.5l4-0.4c10.4-1,20.9-0.7,31.4,0.4c0.7,0.1,1.3,0.7,1.2,1.5C-320.3,237.5-320.9,238-321.6,238z"/>
	</g>
	<g id="XMLID_2422_">
		<path id="XMLID_2423_" class="st0" d="M-345.9,236c-0.1,0-0.1,0-0.2,0c-0.7-0.1-1.2-0.8-1.1-1.5l0.4-2.6c0.3-1.9,0.7-4.3,5.2-4.3
			h5.1c4.4,0,4.9,2.5,5.2,4.4l0.4,2.5c0.1,0.7-0.4,1.4-1.1,1.5c-0.7,0.1-1.4-0.4-1.5-1.1l-0.4-2.5c-0.3-1.7-0.4-2.1-2.5-2.1h-5.1
			c-2.2,0-2.2,0.4-2.5,2.1l-0.4,2.6C-344.7,235.6-345.3,236-345.9,236z"/>
	</g>
	<g id="XMLID_2420_">
		<path id="XMLID_2421_" class="st0" d="M-332.9,269.2h-12.5c-6.7,0-7-3.7-7.2-6.7l-1.3-19.6c0-0.7,0.5-1.4,1.2-1.4
			c0.7-0.1,1.4,0.5,1.4,1.2l1.3,19.6c0.2,3,0.3,4.2,4.5,4.2h12.5c4.2,0,4.3-1.2,4.5-4.2l1.3-19.6c0-0.7,0.7-1.3,1.4-1.2
			c0.7,0,1.3,0.7,1.2,1.4l-1.3,19.6C-325.9,265.5-326.2,269.2-332.9,269.2z"/>
	</g>
	<g id="XMLID_2418_">
		<path id="XMLID_2419_" class="st0" d="M-335.9,258.5h-6.5c-0.7,0-1.3-0.6-1.3-1.3s0.6-1.3,1.3-1.3h6.5c0.7,0,1.3,0.6,1.3,1.3
			S-335.1,258.5-335.9,258.5z"/>
	</g>
	<g id="XMLID_2416_">
		<path id="XMLID_2417_" class="st0" d="M-334.2,250.7h-9.7c-0.7,0-1.3-0.6-1.3-1.3c0-0.7,0.6-1.3,1.3-1.3h9.7
			c0.7,0,1.3,0.6,1.3,1.3C-332.9,250.1-333.5,250.7-334.2,250.7z"/>
	</g>
</g>
</svg>
